<?xml version="1.0" encoding="UTF-8" standalone="no"?>
<!-- Created with Inkscape (http://www.inkscape.org/) -->

<svg
   width="16"
   height="16"
   viewBox="0 0 4.2333333 4.2333333"
   version="1.1"
   id="svg1"
   xml:space="preserve"
   inkscape:version="1.3.2 (091e20ef0f, 2023-11-25)"
   sodipodi:docname="Icon.svg"
   xmlns:inkscape="http://www.inkscape.org/namespaces/inkscape"
   xmlns:sodipodi="http://sodipodi.sourceforge.net/DTD/sodipodi-0.dtd"
   xmlns="http://www.w3.org/2000/svg"
   xmlns:svg="http://www.w3.org/2000/svg"><sodipodi:namedview
     id="namedview1"
     pagecolor="#505050"
     bordercolor="#ffffff"
     borderopacity="1"
     inkscape:showpageshadow="0"
     inkscape:pageopacity="0"
     inkscape:pagecheckerboard="1"
     inkscape:deskcolor="#505050"
     inkscape:document-units="mm"
     inkscape:zoom="32"
     inkscape:cx="0.703125"
     inkscape:cy="10.296875"
     inkscape:window-width="1920"
     inkscape:window-height="995"
     inkscape:window-x="0"
     inkscape:window-y="0"
     inkscape:window-maximized="1"
     inkscape:current-layer="layer1" /><defs
     id="defs1" /><g
     inkscape:label="Layer 1"
     inkscape:groupmode="layer"
     id="layer1"
     transform="translate(-102.40356,-147.51761)"><g
       id="g1"
       transform="matrix(0.88142268,0,0,0.88142268,11.9678,16.856195)"
       style="display:inline;stroke-width:0.999903;stroke-dasharray:none"><path
         d="m 103.93073,149.09089 a 0.42908825,0.41391677 0 0 0 -0.42909,0.4139 v 1.86263 a 0.42908825,0.41391677 0 0 0 0.42909,0.41392 h 1.93091 c 0.23706,0 0.39002,-0.18832 0.42907,-0.41392 l 0.21456,-1.24175 a 0.21454413,0.20695839 0 0 0 -0.21456,-0.20695 h -1.71635 c -0.11843,0 -0.19501,0.0942 -0.21454,0.20695 l -0.21455,1.24175 c -0.0194,0.11277 -0.0961,0.20697 -0.21454,0.20697 a 0.21454413,0.20695839 0 0 1 -0.21456,-0.20697 v -1.86263 a 0.21454413,0.20695839 0 0 1 0.21456,-0.20695 h 0.42909 a 0.21454413,0.20695839 0 0 1 0.21454,0.20695 0.21454413,0.20695839 0 0 0 0.21454,0.20698 h 1.07274 a 0.21454413,0.20695839 0 0 0 -0.21457,-0.20698 h -0.85817 a 0.42908825,0.41391677 0 0 0 -0.42908,-0.4139 z"
         fill="#e0e0e0"
         id="path1-5"
         style="stroke-width:0.872967;stroke-linejoin:round;stroke-dasharray:none"
         inkscape:label="Folder" /><path
         d="m 103.07933,151.25704 v 1.28276 h 3.84825 v -1.28276"
         stroke-linecap="round"
         id="path2"
         style="fill:none;fill-opacity:1;stroke:#e0e0e0;stroke-width:0.641375;stroke-linejoin:round;stroke-dasharray:none;stroke-opacity:1" /></g></g></svg>
